<svg width="27" height="27" viewBox="0 0 27 27" fill="none" xmlns="http://www.w3.org/2000/svg">
<path d="M18.8438 4.005V2.25C18.8438 1.78875 18.4613 1.40625 18 1.40625C17.5388 1.40625 17.1563 1.78875 17.1563 2.25V3.9375H9.84376V2.25C9.84376 1.78875 9.46126 1.40625 9.00001 1.40625C8.53876 1.40625 8.15626 1.78875 8.15626 2.25V4.005C5.11876 4.28625 3.64501 6.0975 3.42001 8.78625C3.39751 9.1125 3.66751 9.3825 3.98251 9.3825H23.0175C23.3438 9.3825 23.6138 9.10125 23.58 8.78625C23.355 6.0975 21.8813 4.28625 18.8438 4.005Z" fill="#1A6DB0"/>
<path opacity="0.4" d="M22.5 11.07C23.1188 11.07 23.625 11.5763 23.625 12.195V19.125C23.625 22.5 21.9375 24.75 18 24.75H9C5.0625 24.75 3.375 22.5 3.375 19.125V12.195C3.375 11.5763 3.88125 11.07 4.5 11.07H22.5Z" fill="#1A6DB0"/>
<path d="M9.5625 16.875C9.27 16.875 8.9775 16.7512 8.76375 16.5487C8.56125 16.335 8.4375 16.0425 8.4375 15.75C8.4375 15.4575 8.56125 15.165 8.76375 14.9512C9.07875 14.6362 9.57375 14.535 9.99 14.715C10.1363 14.7712 10.26 14.85 10.3612 14.9512C10.5637 15.165 10.6875 15.4575 10.6875 15.75C10.6875 16.0425 10.5637 16.335 10.3612 16.5487C10.1475 16.7512 9.855 16.875 9.5625 16.875Z" fill="#1A6DB0"/>
<path d="M13.5 16.875C13.2075 16.875 12.915 16.7512 12.7013 16.5487C12.4988 16.335 12.375 16.0425 12.375 15.75C12.375 15.4575 12.4988 15.165 12.7013 14.9512C12.8025 14.85 12.9262 14.7712 13.0725 14.715C13.4887 14.535 13.9837 14.6362 14.2987 14.9512C14.5012 15.165 14.625 15.4575 14.625 15.75C14.625 16.0425 14.5012 16.335 14.2987 16.5487C14.2425 16.5937 14.1863 16.6387 14.13 16.6837C14.0625 16.7287 13.995 16.7625 13.9275 16.785C13.86 16.8187 13.7925 16.8412 13.725 16.8525C13.6463 16.8637 13.5788 16.875 13.5 16.875Z" fill="#1A6DB0"/>
<path d="M17.4375 16.875C17.145 16.875 16.8525 16.7513 16.6388 16.5488C16.4363 16.335 16.3125 16.0425 16.3125 15.75C16.3125 15.4575 16.4363 15.165 16.6388 14.9513C16.7513 14.85 16.8637 14.7712 17.01 14.715C17.2125 14.625 17.4375 14.6025 17.6625 14.6475C17.73 14.6588 17.7975 14.6812 17.865 14.715C17.9325 14.7375 18 14.7713 18.0675 14.8163C18.1238 14.8613 18.18 14.9063 18.2362 14.9513C18.4387 15.165 18.5625 15.4575 18.5625 15.75C18.5625 16.0425 18.4387 16.335 18.2362 16.5488C18.18 16.5938 18.1238 16.6387 18.0675 16.6837C18 16.7287 17.9325 16.7625 17.865 16.785C17.7975 16.8188 17.73 16.8413 17.6625 16.8525C17.5838 16.8638 17.505 16.875 17.4375 16.875Z" fill="#1A6DB0"/>
<path d="M9.5625 20.8125C9.41625 20.8125 9.27 20.7788 9.135 20.7225C8.98875 20.6663 8.87625 20.5875 8.76375 20.4863C8.56125 20.2725 8.4375 19.98 8.4375 19.6875C8.4375 19.395 8.56125 19.1025 8.76375 18.8888C8.87625 18.7875 8.98875 18.7087 9.135 18.6525C9.3375 18.5625 9.5625 18.54 9.7875 18.585C9.855 18.5963 9.9225 18.6187 9.99 18.6525C10.0575 18.675 10.125 18.7088 10.1925 18.7538C10.2488 18.7988 10.305 18.8438 10.3612 18.8888C10.5637 19.1025 10.6875 19.395 10.6875 19.6875C10.6875 19.98 10.5637 20.2725 10.3612 20.4863C10.305 20.5313 10.2488 20.5875 10.1925 20.6212C10.125 20.6662 10.0575 20.7 9.99 20.7225C9.9225 20.7563 9.855 20.7788 9.7875 20.79C9.70875 20.8013 9.64125 20.8125 9.5625 20.8125Z" fill="#1A6DB0"/>
<path d="M13.5 20.8125C13.2075 20.8125 12.915 20.6888 12.7013 20.4863C12.4988 20.2725 12.375 19.98 12.375 19.6875C12.375 19.395 12.4988 19.1025 12.7013 18.8888C13.1175 18.4725 13.8825 18.4725 14.2987 18.8888C14.5012 19.1025 14.625 19.395 14.625 19.6875C14.625 19.98 14.5012 20.2725 14.2987 20.4863C14.085 20.6888 13.7925 20.8125 13.5 20.8125Z" fill="#1A6DB0"/>
<path d="M17.4375 20.8125C17.145 20.8125 16.8525 20.6888 16.6388 20.4863C16.4363 20.2725 16.3125 19.98 16.3125 19.6875C16.3125 19.395 16.4363 19.1025 16.6388 18.8888C17.055 18.4725 17.82 18.4725 18.2362 18.8888C18.4387 19.1025 18.5625 19.395 18.5625 19.6875C18.5625 19.98 18.4387 20.2725 18.2362 20.4863C18.0225 20.6888 17.73 20.8125 17.4375 20.8125Z" fill="#1A6DB0"/>
</svg>
