<svg width="27" height="27" viewBox="0 0 27 27" fill="none" xmlns="http://www.w3.org/2000/svg">
<path d="M23.4337 9.01127L16.065 3.11627C14.625 1.96877 12.375 1.95752 10.9462 3.10502L3.57746 9.01127C2.51996 9.85502 1.87871 11.5425 2.10371 12.87L3.52121 21.3525C3.84746 23.2538 5.61371 24.75 7.53746 24.75H19.4625C21.3637 24.75 23.1637 23.22 23.49 21.3413L24.9075 12.8588C25.11 11.5425 24.4687 9.85502 23.4337 9.01127ZM14.3437 20.25C14.3437 20.7113 13.9612 21.0938 13.5 21.0938C13.0387 21.0938 12.6562 20.7113 12.6562 20.25V16.875C12.6562 16.4138 13.0387 16.0313 13.5 16.0313C13.9612 16.0313 14.3437 16.4138 14.3437 16.875V20.25Z" fill="#1A6DB0"/>
</svg>
